<svg width="197" height="168" viewBox="0 0 197 168" fill="none" xmlns="http://www.w3.org/2000/svg">
<rect y="2" width="180" height="166" rx="30" fill="#FE7743"/>
<path d="M47.272 125.48C44.904 125.48 43.208 124.968 42.184 123.944C41.16 122.856 40.648 120.84 40.648 117.896C40.648 115.912 40.84 113.384 41.224 110.312C41.672 107.176 42.376 102.888 43.336 97.448C45 87.4 46.312 78.696 47.272 71.336C47.848 66.728 48.136 62.888 48.136 59.816C48.136 56.936 47.08 55.496 44.968 55.496C43.304 55.496 41.288 56.36 38.92 58.088C36.616 59.752 34.056 62.44 31.24 66.152C30.344 67.368 29.352 67.976 28.264 67.976C27.368 67.976 26.568 67.56 25.864 66.728C25.224 65.832 24.904 64.84 24.904 63.752C24.904 62.728 25.096 61.704 25.48 60.68C25.928 59.592 26.632 58.376 27.592 57.032C30.664 52.744 34.088 49.448 37.864 47.144C41.64 44.776 45.416 43.592 49.192 43.592C52.712 43.592 55.4 44.712 57.256 46.952C59.176 49.192 60.136 52.456 60.136 56.744C60.136 58.472 59.976 60.52 59.656 62.888C59.336 65.192 59.048 67.08 58.792 68.552C58.536 70.024 58.344 71.048 58.216 71.624C61.864 61.192 65.96 53.928 70.504 49.832C75.048 45.672 80.04 43.592 85.48 43.592C89.64 43.592 92.904 45.064 95.272 48.008C97.704 50.952 98.92 55.112 98.92 60.488C98.92 62.6 98.632 65.224 98.056 68.36C101.256 59.528 105 53.192 109.288 49.352C113.576 45.512 118.504 43.592 124.072 43.592C128.552 43.592 131.976 45.032 134.344 47.912C136.776 50.792 137.992 54.824 137.992 60.008C137.992 62.824 137.576 66.248 136.744 70.28L130.888 97.736C130.248 100.936 129.928 103.688 129.928 105.992C129.928 108.68 130.536 110.696 131.752 112.04C133.032 113.384 134.792 114.056 137.032 114.056C139.144 114.056 141.192 113.352 143.176 111.944C145.224 110.536 147.624 108.2 150.376 104.936C151.144 104.04 152.008 103.592 152.968 103.592C153.8 103.592 154.44 103.976 154.888 104.744C155.4 105.512 155.656 106.568 155.656 107.912C155.656 110.408 155.048 112.392 153.832 113.864C150.504 117.896 147.208 120.84 143.944 122.696C140.68 124.552 137.256 125.48 133.672 125.48C128.232 125.48 123.976 123.88 120.904 120.68C117.832 117.416 116.296 113.064 116.296 107.624C116.296 103.848 117.064 98.376 118.6 91.208L122.44 73.64C122.568 73.064 122.792 72.04 123.112 70.568C123.432 69.096 123.688 67.72 123.88 66.44C124.072 65.096 124.168 63.784 124.168 62.504C124.168 60.264 123.72 58.6 122.824 57.512C121.992 56.36 120.776 55.784 119.176 55.784C116.168 55.784 113 57.736 109.672 61.64C106.408 65.48 103.272 71.88 100.264 80.84C97.32 89.8 94.92 101.448 93.064 115.784C92.616 119.624 91.816 122.216 90.664 123.56C89.576 124.84 87.784 125.48 85.288 125.48C83.112 125.48 81.512 124.968 80.488 123.944C79.528 122.92 79.048 121 79.048 118.184C79.048 115.56 79.4 112.136 80.104 107.912C80.808 103.624 81.704 98.6 82.792 92.84C85.736 77.352 87.208 67.368 87.208 62.888C87.208 60.456 86.728 58.664 85.768 57.512C84.872 56.36 83.496 55.784 81.64 55.784C78.504 55.784 75.272 57.576 71.944 61.16C68.616 64.68 65.352 70.984 62.152 80.072C59.016 89.096 56.392 101.32 54.28 116.744C53.832 120.008 53.16 122.28 52.264 123.56C51.432 124.84 49.768 125.48 47.272 125.48Z" fill="white"/>
</svg>
